<svg xmlns="http://www.w3.org/2000/svg" viewBox="0 0 300 400">
  <defs>
    <linearGradient id="heartsGrad" x1="0%" y1="0%" x2="100%" y2="100%">
      <stop offset="0%" style="stop-color:#ff9a9e;stop-opacity:1" />
      <stop offset="100%" style="stop-color:#fecfef;stop-opacity:1" />
    </linearGradient>
  </defs>
  <rect width="300" height="400" fill="url(#heartsGrad)" rx="20"/>
  <!-- Hearts pattern -->
  <path d="M150 120 C150 120, 180 90, 210 90 C240 90, 240 120, 240 120 C240 150, 150 180, 150 180 C150 180, 60 150, 60 120 C60 120, 60 90, 90 90 C120 90, 150 120, 150 120 Z" fill="#ff1493" opacity="0.7"/>
  <path d="M80 240 C80 240, 95 225, 110 225 C125 225, 125 240, 125 240 C125 255, 80 275, 80 275 C80 275, 35 255, 35 240 C35 240, 35 225, 50 225 C65 225, 80 240, 80 240 Z" fill="#ff69b4" opacity="0.8"/>
  <path d="M220 260 C220 260, 235 245, 250 245 C265 245, 265 260, 265 260 C265 275, 220 295, 220 295 C220 295, 175 275, 175 260 C175 260, 175 245, 190 245 C205 245, 220 260, 220 260 Z" fill="#ff69b4" opacity="0.8"/>
</svg>
